<mxfile host="app.diagrams.net" agent="Mozilla/5.0 (Macintosh; Intel Mac OS X 10_15_7) AppleWebKit/537.36 (KHTML, like Gecko) Chrome/131.0.0.0 Safari/537.36" version="24.8.9">
  <diagram name="Page-1" id="6-oaVZlNWqIU3k_lUjZU">
    <mxGraphModel dx="1482" dy="819" grid="1" gridSize="10" guides="1" tooltips="1" connect="1" arrows="1" fold="1" page="1" pageScale="1" pageWidth="850" pageHeight="1100" math="0" shadow="0">
      <root>
        <mxCell id="0" />
        <mxCell id="1" parent="0" />
        <mxCell id="mGD8K4JEUIKrSz2ARctg-1" value="User Query" style="rounded=0;whiteSpace=wrap;html=1;" vertex="1" parent="1">
          <mxGeometry x="250" y="180" width="140" height="70" as="geometry" />
        </mxCell>
        <mxCell id="mGD8K4JEUIKrSz2ARctg-2" value="" style="rounded=0;whiteSpace=wrap;html=1;" vertex="1" parent="1">
          <mxGeometry x="70" y="300" width="560" height="390" as="geometry" />
        </mxCell>
        <mxCell id="mGD8K4JEUIKrSz2ARctg-3" value="ReAct Process" style="text;html=1;align=center;verticalAlign=middle;whiteSpace=wrap;rounded=0;" vertex="1" parent="1">
          <mxGeometry x="80" y="320" width="100" height="30" as="geometry" />
        </mxCell>
        <mxCell id="mGD8K4JEUIKrSz2ARctg-4" value="Thought:&lt;div&gt;Analyze retrieved documents to find relevant information&lt;/div&gt;" style="shape=parallelogram;perimeter=parallelogramPerimeter;whiteSpace=wrap;html=1;fixedSize=1;" vertex="1" parent="1">
          <mxGeometry x="180" y="330" width="290" height="110" as="geometry" />
        </mxCell>
      </root>
    </mxGraphModel>
  </diagram>
</mxfile>
